<?xml version="1.0" encoding="utf-8" standalone="no"?>
<svg version="1.1" viewBox="0 0 86 86" xmlns="http://www.w3.org/2000/svg">
  <defs>
    <radialGradient id="gradient" cx="43" cy="43" fx="43" fy="43" r="42.7" gradientUnits="userSpaceOnUse">
      <stop offset="0" style="stop-color:#d85a5a;stop-opacity:1"/>
      <stop offset="1" style="stop-color:#883333;stop-opacity:1"/>
    </radialGradient>
  </defs>
  <rect style="fill:none;opacity:0" width="86" height="86"/>
  <path style="fill:url(#gradient)" d="M 85.7,42.98 C 85.7,19.41 66.58,0.3 43,0.3 19.42,0.3 0.3,19.41 0.3,42.98 v 41.3 c 0,0.79 0.64,1.42 1.42,1.42 h 82.55 c 0.79,0 1.42,-0.64 1.42,-1.42 0.03,0 0,-41.33 0,-41.3 z"/>
  <circle style="fill:#f0f0f0;opacity:0.9" cx="43" cy="43" r="32"/>
  <g style="fill:#000000">
    <rect y="13" x="41" height="8" width="4"/>
    <rect y="65" x="41" height="8" width="4"/>
    <rect y="13" x="-45" height="8" width="4" transform="rotate(-90)"/>
    <rect y="65" x="-45" height="8" width="4" transform="rotate(-90)"/>
    <rect y="-14.26" x="-60.74" height="8" width="4" transform="rotate(-120)"/>
    <rect y="37.74" x="-60.74" height="8" width="4" transform="rotate(-120)"/>
    <rect y="-45.74" x="-60.74" height="8" width="4" transform="rotate(-150)"/>
    <rect y="6.26" x="-60.74" height="8" width="4" transform="rotate(-150)"/>
    <rect y="28.74" x="-17.74" height="8" width="4" transform="rotate(-60)"/>
    <rect y="80.74" x="-17.74" height="8" width="4" transform="rotate(-60)"/>
    <rect y="28.74" x="13.74" height="8" width="4" transform="rotate(-30)"/>
    <rect y="80.74" x="13.74" height="8" width="4" transform="rotate(-30)"/>
  </g>
  <g style="fill:#000000">
    <path d="m 28.19,35.87 2.87,-4.09 18.23,11.71 -3.86,5.51 z"/>
    <path d="m 35.74,49.1 -2.27,-6.24 28.83,-9.43 1.6,4.4 z"/>
  </g>
  <path style="fill:#ef4343" d="M 40.44 34.59 L 39.31 34.97 L 41.62 40.91 C 40.94 41.35 40.5 42.12 40.5 43 C 40.5 44.38 41.62 45.5 43 45.5 C 43.14 45.5 43.27 45.46 43.41 45.44 L 47.12 54.91 C 45.94 55.6 45.16 56.9 45.16 58.38 C 45.16 60.58 46.95 62.38 49.16 62.38 C 51.37 62.38 53.16 60.58 53.16 58.38 C 53.16 56.17 51.37 54.38 49.16 54.38 C 48.82 54.38 48.5 54.42 48.19 54.5 L 44.5 45 C 45.11 44.54 45.5 43.82 45.5 43 C 45.5 41.62 44.38 40.5 43 40.5 C 42.91 40.5 42.83 40.52 42.75 40.53 L 40.44 34.59 z"/>
  <circle style="fill:#f0f0f0" cx="43" cy="43" r="1.5"/>
  <circle style="fill:#000000" cx="43" cy="43" r="0.5"/>
</svg>
