<?xml version="1.0" encoding="UTF-8" standalone="no"?>
<svg
   xmlns:svg="http://www.w3.org/2000/svg"
   xmlns="http://www.w3.org/2000/svg"
   xmlns:xlink="http://www.w3.org/1999/xlink"
   xmlns:sodipodi="http://sodipodi.sourceforge.net/DTD/sodipodi-0.dtd"
   xmlns:inkscape="http://www.inkscape.org/namespaces/inkscape"
   version="1.1"
   x="0px"
   y="0px"
   width="86px"
   height="86px"
   viewBox="0 0 86 86"
   enable-background="new 0 0 86 86"
   xml:space="preserve"
   inkscape:version="0.48.2 r9819"
   sodipodi:docname="harbour-swissclock.svg"
   inkscape:export-filename="harbour-swissclock.png"
   inkscape:export-xdpi="90"
   inkscape:export-ydpi="90">
  <defs>
    <radialGradient
        inkscape:collect="always"
        xlink:href="#SVGID_1_"
        id="radialGradient4187"
        cx="42.999409"
        cy="43.001904"
        fx="42.999409"
        fy="43.001904"
        r="42.701057"
        gradientTransform="matrix(0.00178111,0.99529154,-1.0000183,0.00178958,85.925515,0.1280033)"
        gradientUnits="userSpaceOnUse"/>
  </defs>
  <g
      transform="translate(0.18220339,0)">
    <linearGradient
        id="SVGID_1_"
        gradientUnits="userSpaceOnUse"
        x1="12.8064"
        y1="73.193703"
        x2="73.193398"
        y2="12.8067">
      <stop
          offset="0"
          style="stop-color:#d85a5a;stop-opacity:1;"/>
      <stop
          offset="1"
          style="stop-color:#883333;stop-opacity:1;"/>
    </linearGradient>
    <path
        style="fill:url(#radialGradient4187);fill-opacity:1.0"
        d="m 85.699797,43 c 0,15.94882 0.0015,0.0058 0,41.277 -5.1e-5,1.399167 0.0019,1.423038 -1.606,1.423 -83.79349988,-0.002 1.513365,0.0095 -82.3710004,0 -1.42067041,-1.61e-4 -1.42282843,-0.01625 -1.42299999,-1.422998 -0.003251,-26.658299 0,-26.661161 0,-41.277 C 0.29979661,19.417441 19.417441,0.29999924 43,0.29999924 66.582559,0.29999924 85.699797,19.417441 85.699797,43 z"
        inkscape:connector-curvature="0"
        sodipodi:nodetypes="ssssssss"/>
    <path
        style="opacity:0.9;fill:#f0f0f0;fill-opacity:1"
        d="M 75.025002,43 C 75.025002,60.68692 60.68692,75.025002 43,75.025002 25.31308,75.025002 10.974998,60.68692 10.974998,43 10.974998,25.31308 25.31308,10.974998 43,10.974998 60.68692,10.974998 75.025002,25.31308 75.025002,43 z"/>
  </g>
  <rect
      y="13"
      x="41"
      height="8"
      width="4"
      style="fill:#000000;fill-opacity:1;fill-rule:nonzero;stroke:none"/>
  <rect
      y="65"
      x="41"
      height="8"
      width="4"
      style="fill:#000000;fill-opacity:1;fill-rule:nonzero;stroke:none"/>
  <rect
      transform="matrix(0,-1,1,0,0,0)"
      y="13"
      x="-45"
      height="8"
      width="4"
      style="fill:#000000;fill-opacity:1;fill-rule:nonzero;stroke:none"/>
  <rect
      transform="matrix(0,-1,1,0,0,0)"
      y="65"
      x="-45"
      height="8"
      width="4"
      style="fill:#000000;fill-opacity:1;fill-rule:nonzero;stroke:none"/>
  <rect
      transform="matrix(-0.5,-0.8660254,0.8660254,-0.5,0,0)"
      y="-14.260906"
      x="-60.739094"
      height="8"
      width="4"
      style="fill:#000000;fill-opacity:1;fill-rule:nonzero;stroke:none"/>
  <rect
      transform="matrix(-0.5,-0.8660254,0.8660254,-0.5,0,0)"
      y="37.739094"
      x="-60.739094"
      height="8"
      width="4"
      style="fill:#000000;fill-opacity:1;fill-rule:nonzero;stroke:none"/>
  <rect
      transform="matrix(-0.8660254,-0.5,0.5,-0.8660254,0,0)"
      y="-45.739094"
      x="-60.739094"
      height="8"
      width="4"
      style="fill:#000000;fill-opacity:1;fill-rule:nonzero;stroke:none"/>
  <rect
      transform="matrix(-0.8660254,-0.5,0.5,-0.8660254,0,0)"
      y="6.2609076"
      x="-60.739094"
      height="8"
      width="4"
      style="fill:#000000;fill-opacity:1;fill-rule:nonzero;stroke:none"/>
  <rect
      transform="matrix(0.5,-0.8660254,0.8660254,0.5,0,0)"
      y="28.739092"
      x="-17.739092"
      height="8"
      width="4"
      style="fill:#000000;fill-opacity:1;fill-rule:nonzero;stroke:none"/>
  <rect
      transform="matrix(0.5,-0.8660254,0.8660254,0.5,0,0)"
      y="80.73909"
      x="-17.739092"
      height="8"
      width="4"
      style="fill:#000000;fill-opacity:1;fill-rule:nonzero;stroke:none"/>
  <rect
      transform="matrix(0.8660254,-0.5,0.5,0.8660254,0,0)"
      y="28.739094"
      x="13.739092"
      height="8"
      width="4"
      style="fill:#000000;fill-opacity:1;fill-rule:nonzero;stroke:none"/>
  <rect
      transform="matrix(0.8660254,-0.5,0.5,0.8660254,0,0)"
      y="80.73909"
      x="13.739092"
      height="8"
      width="4"
      style="fill:#000000;fill-opacity:1;fill-rule:nonzero;stroke:none"/>
  <path
      style="fill:#000000;fill-opacity:1;fill-rule:nonzero;stroke:none"
      d="m 28.192241,35.866959 2.866668,-4.094027 18.226192,11.705579 -3.859489,5.511921 z"
      inkscape:connector-curvature="0"
      sodipodi:nodetypes="ccccc"/>
  <path
      style="fill:#000000;fill-opacity:1;fill-rule:nonzero;stroke:none"
      d="m 35.736599,49.1 -2.270231,-6.237409 28.83315,-9.427975 1.600321,4.396845 z"
      inkscape:connector-curvature="0"
      sodipodi:nodetypes="ccccc"/>
  <path
      style="fill:#ef4343;fill-opacity:1;fill-rule:nonzero;stroke:none"
      d="M 40.4375 34.59375 L 39.3125 34.96875 L 41.625 40.90625 C 40.940963 41.352337 40.5 42.122451 40.5 43 C 40.5 44.380712 41.619288 45.5 43 45.5 C 43.140726 45.5 43.271863 45.459847 43.40625 45.4375 L 47.125 54.90625 C 45.942046 55.601071 45.15625 56.903914 45.15625 58.375 C 45.15625 60.584139 46.947111 62.375 49.15625 62.375 C 51.365389 62.375 53.15625 60.584139 53.15625 58.375 C 53.15625 56.165861 51.365389 54.375 49.15625 54.375 C 48.821427 54.375 48.498327 54.422502 48.1875 54.5 L 44.5 45 C 45.111807 44.544282 45.5 43.821524 45.5 43 C 45.5 41.619288 44.380712 40.5 43 40.5 C 42.913706 40.5 42.834043 40.522715 42.75 40.53125 L 40.4375 34.59375 z "/>
  <path
      sodipodi:type="arc"
      style="fill:#f0f0f0;fill-opacity:1;fill-rule:nonzero;stroke:none"
      sodipodi:cx="38.586758"
      sodipodi:cy="27.572306"
      sodipodi:rx="1.2239538"
      sodipodi:ry="1.8037215"
      d="m 39.810712,27.572306 a 1.2239538,1.8037215 0 1 1 -2.447908,0 1.2239538,1.8037215 0 1 1 2.447908,0 z"
      transform="matrix(1.2255364,0,0,0.83161395,-4.2894761,20.070486)"/>
  <path
      sodipodi:type="arc"
      style="fill:#000000;fill-opacity:1;fill-rule:nonzero;stroke:none"
      sodipodi:cx="6.1949153"
      sodipodi:cy="5.6483049"
      sodipodi:rx="1.4576272"
      sodipodi:ry="1.2754238"
      d="m 7.6525425,5.6483049 a 1.4576272,1.2754238 0 1 1 -2.9152544,0 1.4576272,1.2754238 0 1 1 2.9152544,0 z"
      transform="matrix(0.34302324,0,0,0.39202657,40.875,40.785714)"/>
</svg>
